<svg id="visual" viewBox="0 0 960 540" width="960" height="540" xmlns="http://www.w3.org/2000/svg" xmlns:xlink="http://www.w3.org/1999/xlink" version="1.1"><path d="M863 540L844 0L960 0L960 540Z" fill="#ececec"></path><path d="M805 540L748 0L845 0L864 540Z" fill="#a6c6bf"></path><path d="M719 540L671 0L749 0L806 540Z" fill="#5ea194"></path><path d="M575 540L556 0L672 0L720 540Z" fill="#038373"></path><path d="M517 540L479 0L557 0L576 540Z" fill="#038373"></path><path d="M277 540L316 0L480 0L518 540Z" fill="#5ea194"></path><path d="M76 540L47 0L317 0L278 540Z" fill="#a6c6bf"></path><path d="M0 540L0 0L48 0L77 540Z" fill="#ececec"></path></svg>