<svg id="visual" viewBox="0 0 900 600" width="900" height="600" xmlns="http://www.w3.org/2000/svg" xmlns:xlink="http://www.w3.org/1999/xlink" version="1.1"><path d="M428 0L424.3 14.3C420.7 28.7 413.3 57.3 403 85.8C392.7 114.3 379.3 142.7 375.3 171.2C371.3 199.7 376.7 228.3 390 257C403.3 285.7 424.7 314.3 436.2 343C447.7 371.7 449.3 400.3 427.8 428.8C406.3 457.3 361.7 485.7 348 514.2C334.3 542.7 351.7 571.3 360.3 585.7L369 600L0 600L0 585.7C0 571.3 0 542.7 0 514.2C0 485.7 0 457.3 0 428.8C0 400.3 0 371.7 0 343C0 314.3 0 285.7 0 257C0 228.3 0 199.7 0 171.2C0 142.7 0 114.3 0 85.8C0 57.3 0 28.7 0 14.3L0 0Z" fill="#C44B4F" stroke-linecap="round" stroke-linejoin="miter"></path></svg>